<svg xmlns="http://www.w3.org/2000/svg" width="1000" height="1000" viewBox="0 0 500 500" version="1.1"><path d="M 300.530 285.058 C 303.506 290.814, 306 303.064, 306 311.930 C 306 332.958, 295.391 352.938, 278.136 364.410 C 266.196 372.347, 252.100 377.541, 215.500 387.487 C 190.861 394.184, 178.922 398.334, 166.500 404.521 C 150.898 412.292, 148.352 414.500, 159.117 410.927 C 175.008 405.652, 188.474 403.753, 222.500 401.987 C 259.623 400.061, 274.074 397.799, 289.106 391.563 C 290.356 391.044, 290.987 391.883, 291.959 395.352 C 295.369 407.532, 310.156 411.416, 318.686 402.372 C 325.875 394.749, 323.723 381.944, 314.520 377.576 C 312.584 376.658, 311 375.762, 311 375.586 C 311 375.409, 313.009 372.269, 315.464 368.607 C 324.184 355.604, 327.870 336.434, 324.618 321 C 322.230 309.663, 316.100 298.164, 307.775 289.400 C 300.265 281.494, 297.978 280.124, 300.530 285.058" stroke="none" fill="#1182ce" fill-rule="evenodd"/><path d="M 55.997 260.643 C 68.849 271.665, 78.465 283.854, 100.352 316.866 C 118.104 343.642, 127.853 356.093, 136.307 362.789 L 141.723 367.077 138.451 370.349 C 132.065 376.735, 132.004 386.174, 138.306 392.769 C 148.167 403.090, 165 396.062, 165 381.625 L 165 377.150 175.750 377.144 C 188.155 377.137, 195.287 375.550, 205.500 370.527 C 223.818 361.517, 236.821 343.911, 240.377 323.304 C 240.890 320.330, 240.290 320.749, 231.714 329.350 C 224.543 336.543, 220.837 339.404, 215 342.254 C 205.384 346.949, 196.655 348.970, 186 348.970 C 162.787 348.970, 149.569 341.146, 113.401 305.995 C 82.328 275.797, 71.304 266.683, 57.500 259.785 L 51.500 256.787 55.997 260.643" stroke="none" fill="#41b93d" fill-rule="evenodd"/><path d="M 137 99.750 C 133.605 116.853, 129.666 126.594, 110.205 166 C 95.979 194.806, 91.128 206.927, 88.877 219.288 C 87.877 224.774, 87.339 225.959, 86.070 225.468 C 79.535 222.937, 73.572 223.896, 68.660 228.268 C 61.155 234.947, 61.679 246.602, 69.761 252.767 C 74.627 256.479, 83.256 256.665, 87.995 253.162 C 89.734 251.876, 91.241 250.976, 91.342 251.162 C 91.444 251.348, 92.792 254.164, 94.337 257.421 C 101.813 273.179, 114.917 284.570, 132.500 290.596 C 143.524 294.374, 158.787 294.570, 170.224 291.081 C 178.154 288.661, 179.484 287, 173.493 287 C 168.352 287, 155.281 282.511, 148.088 278.276 C 135.272 270.728, 124.264 256.847, 119.718 242.500 C 117.850 236.604, 117.517 233.371, 117.608 222 C 117.733 206.421, 119.182 198.406, 127.597 166.749 C 135.304 137.760, 137.909 123.870, 138.664 107.750 C 139.018 100.188, 139.045 94, 138.725 94 C 138.404 94, 137.628 96.588, 137 99.750 M 241.437 170.250 L 238.500 173.500 241.750 170.563 C 244.779 167.825, 245.460 167, 244.687 167 C 244.515 167, 243.052 168.463, 241.437 170.250 M 365 198.500 C 370.203 203.725, 374.685 208, 374.960 208 C 375.235 208, 371.203 203.725, 366 198.500 C 360.797 193.275, 356.315 189, 356.040 189 C 355.765 189, 359.797 193.275, 365 198.500" stroke="none" fill="#fbc108" fill-rule="evenodd"/><path d="M 315 89.176 C 300.602 94.245, 285.699 96.309, 247.728 98.490 C 217.244 100.241, 203.650 102.079, 191.693 106.064 C 186.849 107.679, 182.687 109, 182.443 109 C 182.199 109, 181.998 107.763, 181.996 106.250 C 181.994 104.737, 181.098 102.033, 180.005 100.241 C 174.005 90.399, 159 90.602, 153.266 100.604 C 148.464 108.981, 152.264 119.504, 161.333 122.940 L 164.166 124.014 161.518 127.161 C 157.752 131.637, 152.439 142.579, 150.386 150.087 C 147.652 160.084, 148.077 175.374, 151.371 185.578 C 155.107 197.153, 164.152 210.412, 172.240 216.171 L 175.173 218.259 173.163 214.320 C 169.753 207.636, 168 198.805, 168 188.316 C 168 169.694, 173.498 156.292, 186.406 143.445 C 199.315 130.597, 210.557 125.566, 252.500 113.862 C 266.250 110.025, 281.550 105.546, 286.500 103.908 C 295.442 100.949, 315.673 91.571, 319.500 88.611 C 321.911 86.745, 321.901 86.747, 315 89.176" stroke="none" fill="#e91347" fill-rule="evenodd"/><path d="M 165.250 92.689 C 166.213 92.941, 167.787 92.941, 168.750 92.689 C 169.713 92.438, 168.925 92.232, 167 92.232 C 165.075 92.232, 164.287 92.438, 165.250 92.689 M 258.750 97.706 C 259.988 97.944, 262.012 97.944, 263.250 97.706 C 264.488 97.467, 263.475 97.272, 261 97.272 C 258.525 97.272, 257.512 97.467, 258.750 97.706 M 240.264 98.718 C 241.784 98.947, 244.034 98.941, 245.264 98.704 C 246.494 98.467, 245.250 98.279, 242.500 98.286 C 239.750 98.294, 238.744 98.488, 240.264 98.718 M 319.500 103.206 C 313.019 105.471, 309 111.279, 309 118.380 L 309 122.860 298.250 122.879 C 285.822 122.900, 278.615 124.498, 268.500 129.473 C 256.151 135.547, 245.638 146.045, 239.653 158.277 C 237.134 163.425, 232.581 178.915, 233.358 179.692 C 233.557 179.890, 235.550 177.629, 237.787 174.666 C 245.144 164.921, 259.173 155.969, 272.460 152.539 C 280.110 150.564, 295.838 150.555, 303.540 152.522 C 320.577 156.871, 332.377 165.751, 369.500 202.157 C 391.512 223.744, 404.755 234.349, 418 240.995 L 422.500 243.253 417.500 238.912 C 404.602 227.713, 395.722 216.464, 374.587 184.551 C 355.804 156.189, 347.203 145.135, 338.068 137.619 L 332.136 132.737 335.500 129.565 C 339.450 125.840, 340.420 122.726, 339.763 115.889 C 339.383 111.935, 338.581 110.163, 335.936 107.434 C 332.847 104.247, 327.626 101.907, 324 102.085 C 323.175 102.125, 321.150 102.630, 319.500 103.206" stroke="none" fill="#f0471c" fill-rule="evenodd"/><path d="M 308.831 207.528 C 305.163 208.353, 300.668 209.657, 298.843 210.424 L 295.523 211.820 299.512 212.429 C 331.846 217.368, 354.481 240.798, 356.695 271.622 C 357.579 283.922, 355.531 296.791, 347.879 327 C 338.050 365.811, 335.986 376.738, 335.439 392.870 L 334.976 406.500 337.879 395.500 C 342.491 378.020, 346.229 368.956, 361.602 337.965 C 379.917 301.045, 383.255 292.704, 385.524 278.181 C 386.058 274.767, 386.535 273.991, 387.804 274.478 C 399.612 279.009, 412.096 270.020, 410.562 258.091 C 409.041 246.268, 395.191 240.047, 385.817 246.977 C 384.181 248.186, 382.766 249.024, 382.671 248.838 C 382.577 248.652, 380.757 244.990, 378.626 240.700 C 371.482 226.315, 356.541 213.905, 340.506 209.038 C 331.253 206.229, 317.513 205.574, 308.831 207.528" stroke="none" fill="#7f248d" fill-rule="evenodd"/><path d="M 0 250.002 L 0 500.004 250.250 499.752 L 500.500 499.500 500.752 249.750 L 501.004 0 250.502 0 L 0 0 0 250.002 M 0.492 250.500 C 0.492 388, 0.608 444.101, 0.750 375.170 C 0.892 306.238, 0.892 193.738, 0.750 125.170 C 0.608 56.601, 0.492 113, 0.492 250.500 M 315.227 88.592 C 302.036 93.564, 284.050 96.032, 246.500 98.022 C 213.873 99.752, 194.798 102.858, 184.940 108.046 C 183.695 108.701, 183.133 107.946, 182.160 104.307 C 180.010 96.270, 171.611 90.912, 163.537 92.427 C 158.214 93.426, 152.292 99.153, 151.234 104.327 C 149.633 112.157, 152.551 118.796, 159.192 122.434 L 162.722 124.367 158.487 130.934 C 156.158 134.545, 152.983 140.875, 151.431 145 C 148.850 151.864, 148.609 153.645, 148.599 166 C 148.586 181.378, 150.103 187.359, 156.969 199 C 162.286 208.013, 177.377 222.911, 174.443 216.250 C 166.086 197.276, 166.075 177.845, 174.412 160.691 C 181.545 146.015, 190.732 137.307, 207.370 129.446 C 218.812 124.041, 226.079 121.612, 253.550 114.013 C 284.378 105.486, 292.812 102.607, 306.500 95.935 C 317.338 90.652, 325.102 85.898, 322.500 86.136 C 321.950 86.187, 318.677 87.292, 315.227 88.592 M 137 99.750 C 133.605 116.853, 129.666 126.594, 110.205 166 C 95.979 194.806, 91.128 206.927, 88.877 219.288 C 87.877 224.774, 87.339 225.959, 86.070 225.468 C 79.535 222.937, 73.572 223.896, 68.660 228.268 C 61.155 234.947, 61.679 246.602, 69.761 252.767 C 74.627 256.479, 83.256 256.665, 87.995 253.162 C 89.734 251.876, 91.241 250.976, 91.342 251.162 C 91.444 251.348, 92.792 254.164, 94.337 257.421 C 101.813 273.179, 114.917 284.570, 132.500 290.596 C 143.524 294.374, 158.787 294.570, 170.224 291.081 C 178.154 288.661, 179.484 287, 173.493 287 C 168.352 287, 155.281 282.511, 148.088 278.276 C 135.272 270.728, 124.264 256.847, 119.718 242.500 C 117.850 236.604, 117.517 233.371, 117.608 222 C 117.733 206.421, 119.182 198.406, 127.597 166.749 C 135.304 137.760, 137.909 123.870, 138.664 107.750 C 139.018 100.188, 139.045 94, 138.725 94 C 138.404 94, 137.628 96.588, 137 99.750 M 317.274 104.093 C 311.813 106.796, 308.615 111.906, 308.615 117.929 L 308.615 122.500 297.058 122.576 C 287.182 122.642, 284.337 123.053, 277.510 125.400 C 266.873 129.057, 258.780 134.069, 251.500 141.506 C 242.032 151.179, 235.212 164.435, 233.473 176.540 L 232.761 181.500 235.708 177.496 C 240.806 170.572, 251.734 161.370, 259.282 157.646 C 268.492 153.102, 277.356 151.033, 287.701 151.015 C 298.425 150.995, 304.747 152.393, 314.500 156.941 C 326.304 162.445, 336.955 171.046, 361.490 194.891 C 391.328 223.889, 402.800 233.323, 416.898 240.453 L 422.296 243.184 413.222 234.549 C 401.736 223.618, 393.194 212.439, 373.837 183 C 357.050 157.471, 345.833 143.182, 337.547 136.770 L 332.243 132.666 335.011 130.337 C 343.617 123.096, 341.732 108.507, 331.595 103.904 C 326.252 101.477, 322.459 101.527, 317.274 104.093 M 310.763 206.965 C 305.473 207.932, 295.682 211.016, 296.214 211.548 C 296.403 211.737, 300.145 212.603, 304.529 213.474 C 316.749 215.900, 329.228 222.440, 337.629 230.822 C 345.552 238.727, 350.055 245.797, 353.769 256.165 C 356.098 262.666, 356.395 264.978, 356.387 276.500 C 356.375 292.133, 355.357 297.739, 345.495 336.500 C 337.173 369.211, 335.344 379.721, 335.230 395.500 C 335.147 407.115, 335.378 406.976, 338.510 393.527 C 341.386 381.181, 346.848 368.142, 361.983 337.500 C 378.406 304.248, 382.024 295.506, 384.658 282.708 C 386.305 274.709, 386.612 274.068, 388.475 274.754 C 389.589 275.164, 392.831 275.465, 395.680 275.422 C 402.327 275.322, 407.104 271.912, 409.543 265.526 C 413.543 255.053, 407.151 245.161, 395.791 244.244 C 391.345 243.885, 389.905 244.223, 386.776 246.361 L 383.052 248.905 378.805 240.702 C 371.095 225.813, 357.573 214.491, 341 209.048 C 333.663 206.639, 318.327 205.582, 310.763 206.965 M 55.997 260.643 C 68.849 271.665, 78.465 283.854, 100.352 316.866 C 118.104 343.642, 127.853 356.093, 136.307 362.789 L 141.723 367.077 138.451 370.349 C 132.065 376.735, 132.004 386.174, 138.306 392.769 C 148.167 403.090, 165 396.062, 165 381.625 L 165 377.150 175.750 377.144 C 188.155 377.137, 195.287 375.550, 205.500 370.527 C 223.818 361.517, 236.821 343.911, 240.377 323.304 C 240.890 320.330, 240.290 320.749, 231.714 329.350 C 224.543 336.543, 220.837 339.404, 215 342.254 C 205.384 346.949, 196.655 348.970, 186 348.970 C 162.787 348.970, 149.569 341.146, 113.401 305.995 C 82.328 275.797, 71.304 266.683, 57.500 259.785 L 51.500 256.787 55.997 260.643 M 301.125 286.750 C 310.286 307.941, 306.166 334.680, 290.916 353.005 C 279.509 366.713, 264.751 373.630, 220.500 386.014 C 205.100 390.324, 188.450 395.276, 183.500 397.018 C 174.264 400.269, 153.786 410.348, 151.970 412.536 C 151.411 413.210, 154.880 412.441, 159.678 410.829 C 175.248 405.597, 186.367 404.216, 239 400.979 C 259.170 399.739, 271.920 397.722, 282.668 394.070 L 290.837 391.295 291.912 395.564 C 296.480 413.705, 323 410.238, 323 391.500 C 323 385.380, 320.813 381.472, 315.505 378.105 L 311.120 375.325 314.404 370.706 C 329.860 348.966, 329.599 316.940, 313.794 296 C 310.953 292.236, 300.768 282, 299.863 282 C 299.428 282, 299.995 284.137, 301.125 286.750" stroke="none" fill="#fff" fill-rule="evenodd"/></svg>